{
	"asset":{
		"generator":"Khronos glTF Blender I/O v4.5.47",
		"version":"2.0"
	},
	"scene":0,
	"scenes":[
		{
			"name":"Scene",
			"nodes":[
				0
			]
		}
	],
	"nodes":[
		{
			"mesh":0,
			"name":"Cylinder"
		}
	],
	"meshes":[
		{
			"name":"Cylinder",
			"primitives":[
				{
					"attributes":{
						"POSITION":0,
						"NORMAL":1,
						"TEXCOORD_0":2
					},
					"indices":3
				}
			]
		}
	],
	"accessors":[
		{
			"bufferView":0,
			"componentType":5126,
			"count":2176,
			"max":[
				0.699999988079071,
				1.1999934911727905,
				0.7041728496551514
			],
			"min":[
				-0.7017878890037537,
				-0.5,
				-0.699999988079071
			],
			"type":"VEC3"
		},
		{
			"bufferView":1,
			"componentType":5126,
			"count":2176,
			"type":"VEC3"
		},
		{
			"bufferView":2,
			"componentType":5126,
			"count":2176,
			"type":"VEC2"
		},
		{
			"bufferView":3,
			"componentType":5123,
			"count":3252,
			"type":"SCALAR"
		}
	],
	"bufferViews":[
		{
			"buffer":0,
			"byteLength":26112,
			"byteOffset":0,
			"target":34962
		},
		{
			"buffer":0,
			"byteLength":26112,
			"byteOffset":26112,
			"target":34962
		},
		{
			"buffer":0,
			"byteLength":17408,
			"byteOffset":52224,
			"target":34962
		},
		{
			"buffer":0,
			"byteLength":6504,
			"byteOffset":69632,
			"target":34963
		}
	],
	"buffers":[
		{
			"byteLength":76136,
			"uri":"ghost-17a508091b609452d74caf281db14e2f.bin"
		}
	]
}
